<svg version="1.2" xmlns="http://www.w3.org/2000/svg" viewBox="0 0 512 512" width="512" height="512">
	<title>black-bishop-svg</title>
	<style>
		.s0 { fill: #000000;stroke: #ffffff;paint-order:stroke fill markers;stroke-linejoin: round;stroke-width: 10 } 
	</style>
	<path id="Layer" class="s0" d="m104 287.9c0 51.6 22.1 73.8 56 84.6v43.5h192v-43.5c33.9-10.8 56-33 56-84.6 0-30.6-10.7-67.1-26.7-102.6l-100.3 100.3q-1.1 1.2-2.6 1.8-1.5 0.6-3.1 0.6-1.5 0-3-0.6-1.5-0.6-2.6-1.8l-11.3-11.3q-1.1-1.1-1.8-2.6-0.6-1.4-0.6-3 0-1.6 0.6-3.1 0.7-1.4 1.8-2.6l107.9-107.9c-20.8-37.9-46.5-72.1-70.9-92.6 14-3.4 24.6-15.4 24.6-30.5 0-4.2-0.8-8.4-2.4-12.2-1.6-3.9-4-7.5-7-10.4-2.9-3-6.5-5.4-10.4-7-3.8-1.6-8-2.4-12.2-2.4h-64c-4.2 0-8.4 0.8-12.2 2.4-3.9 1.6-7.5 4-10.4 7-3 2.9-5.4 6.5-7 10.4-1.6 3.8-2.4 8-2.4 12.2 0 15 10.6 27.1 24.6 30.5-52.8 44.3-112.6 152-112.6 225.4zm296 160.1h-288c-2.1 0-4.2 0.4-6.1 1.2-2 0.8-3.7 2-5.2 3.5-1.5 1.5-2.7 3.2-3.5 5.2-0.8 1.9-1.2 4-1.2 6.1v32c0 2.1 0.4 4.2 1.2 6.1 0.8 2 2 3.7 3.5 5.2 1.5 1.5 3.2 2.7 5.2 3.5 1.9 0.8 4 1.2 6.1 1.2h288c2.1 0 4.2-0.4 6.1-1.2 2-0.8 3.7-2 5.2-3.5 1.5-1.5 2.7-3.2 3.5-5.2 0.8-1.9 1.2-4 1.2-6.1v-32c0-2.1-0.4-4.2-1.2-6.1-0.8-2-2-3.7-3.5-5.2-1.5-1.5-3.2-2.7-5.2-3.5-1.9-0.8-4-1.2-6.1-1.2z"/>
</svg>